<?xml version="1.0" standalone="no"?>
<!DOCTYPE svg PUBLIC "-//W3C//DTD SVG 20010904//EN"
 "http://www.w3.org/TR/2001/REC-SVG-20010904/DTD/svg10.dtd">
<svg version="1.0" xmlns="http://www.w3.org/2000/svg"
 width="1170.000000pt" height="1170.000000pt" viewBox="0 0 1170.000000 1170.000000"
 preserveAspectRatio="xMidYMid meet">
<metadata>
Created by potrace 1.14, written by Peter Selinger 2001-2017
</metadata>
<g transform="translate(0.000000,1170.000000) scale(0.100000,-0.100000)"
fill="#000000" stroke="none">
<path d="M10105 11609 c-38 -4 -88 -10 -110 -14 -22 -4 -47 -8 -55 -9 -30 -4
-165 -49 -174 -57 -6 -5 -18 -9 -28 -9 -10 0 -18 -5 -18 -12 0 -6 -3 -9 -6 -5
-7 7 -166 -74 -184 -93 -3 -3 -18 -14 -33 -23 -43 -27 -65 -46 -134 -113 -34
-34 -65 -59 -68 -56 -3 3 -5 1 -5 -5 0 -5 -11 -22 -25 -37 -13 -14 -39 -47
-56 -73 -18 -27 -35 -50 -38 -53 -20 -17 -108 -199 -131 -270 -12 -36 -24 -72
-27 -80 -4 -8 -5 -21 -4 -28 1 -8 -2 -19 -6 -25 -5 -7 -10 -28 -12 -47 -2 -19
-7 -42 -11 -50 -8 -16 -7 -342 2 -375 7 -25 20 -103 19 -110 -1 -3 6 -19 14
-35 9 -17 13 -30 11 -30 -3 0 1 -18 9 -39 7 -22 11 -41 7 -43 -4 -2 -31 -29
-59 -60 -29 -31 -53 -55 -53 -54 0 2 -57 -54 -126 -123 -69 -69 -125 -128
-124 -130 1 -2 -4 -7 -11 -12 -19 -11 -148 -139 -148 -146 1 -3 -5 -9 -13 -14
-14 -9 -756 -748 -819 -816 -21 -23 -39 -41 -39 -38 0 5 -167 -164 -171 -173
-2 -4 -19 -21 -39 -37 -67 -58 -340 -336 -340 -347 0 -6 -2 -9 -5 -6 -8 7
-743 -725 -738 -734 2 -5 0 -8 -5 -8 -6 0 -27 -16 -48 -35 -22 -19 -42 -35
-46 -35 -4 0 -9 -8 -12 -18 -12 -37 -40 -43 -108 -23 -147 43 -260 61 -353 56
-49 -2 -101 -6 -115 -9 -58 -10 -169 -28 -196 -30 -16 -1 -47 -11 -69 -20 -76
-34 -90 -39 -108 -43 -10 -2 -28 -9 -40 -15 -12 -7 -25 -11 -29 -10 -5 1 -8
-2 -8 -8 0 -5 -7 -10 -15 -10 -8 0 -15 -5 -15 -12 0 -6 -3 -9 -6 -5 -5 5 -100
-52 -137 -83 -110 -92 -280 -260 -272 -268 3 -3 -4 -11 -15 -19 -11 -8 -20
-21 -20 -29 0 -8 -4 -14 -8 -14 -4 0 -24 -27 -43 -60 -18 -33 -37 -60 -41 -60
-5 0 -8 -4 -8 -9 0 -5 -5 -22 -12 -38 -6 -15 -12 -30 -13 -33 -1 -3 -6 -16
-12 -30 -18 -44 -63 -193 -73 -245 -5 -27 -12 -61 -15 -75 -11 -49 -13 -265
-3 -277 7 -9 7 -13 0 -13 -6 0 -9 -8 -7 -17 2 -10 4 -18 5 -18 1 0 3 -13 5
-30 6 -50 13 -92 25 -137 12 -44 50 -160 55 -166 3 -4 143 133 677 665 226
224 322 313 334 309 8 -3 12 -10 9 -16 -3 -5 -1 -10 5 -10 6 0 46 -36 90 -79
44 -44 80 -78 80 -76 0 1 37 -34 83 -79 45 -44 81 -82 79 -84 -2 -2 14 -15 34
-29 21 -13 47 -37 58 -51 12 -15 29 -33 40 -42 10 -8 55 -50 99 -93 l81 -79
-46 -44 c-26 -24 -45 -44 -43 -44 2 0 -24 -27 -58 -59 -219 -210 -869 -861
-861 -862 5 -1 12 -1 17 0 4 0 7 -4 7 -10 0 -5 4 -8 9 -4 5 3 12 1 16 -5 4 -6
11 -8 16 -5 5 4 9 3 9 -2 0 -10 71 -33 100 -33 11 0 20 -3 20 -7 0 -5 10 -8
23 -9 12 0 40 -4 62 -8 85 -16 310 -23 365 -11 14 3 43 7 65 10 59 8 166 36
197 51 15 8 30 14 33 14 47 1 321 142 333 172 2 4 9 8 16 8 33 0 266 257 333
368 41 66 103 203 98 213 -4 5 -2 9 4 9 5 0 13 15 17 33 4 17 9 37 11 42 16
50 50 214 47 228 -1 9 0 17 4 17 8 0 7 152 -1 174 -4 9 -2 18 4 21 5 4 7 10 5
13 -2 4 -7 28 -11 52 -16 107 -36 194 -46 200 -6 4 -10 10 -9 14 1 3 -2 20 -5
37 -4 18 -3 34 1 38 5 3 24 23 42 44 17 21 32 35 32 31 0 -4 13 9 29 29 15 20
31 34 34 31 3 -3 8 4 12 15 3 11 14 23 23 26 9 3 28 20 42 38 13 17 57 62 96
99 39 37 71 68 70 70 0 2 20 24 47 49 26 26 47 45 47 43 0 -2 27 25 59 60 33
35 62 62 64 59 3 -2 8 5 12 16 3 12 10 21 14 21 4 0 33 25 63 55 30 30 54 55
52 55 -2 0 26 27 61 60 35 33 61 60 57 60 -4 0 7 9 23 20 17 11 27 20 23 20
-4 0 22 27 57 60 35 33 63 60 61 60 -2 0 17 21 43 48 25 26 49 46 54 44 4 -2
7 0 7 5 0 11 108 122 114 116 2 -2 7 5 11 16 3 12 12 21 18 22 7 0 30 22 52
48 22 26 55 58 72 72 18 13 33 29 33 36 0 6 9 15 20 18 11 4 19 9 17 13 -2 4
10 19 25 34 15 15 28 25 28 23 0 -3 27 24 59 59 33 35 62 61 65 58 3 -3 6 1 7
9 0 8 20 30 43 49 24 19 42 38 39 42 -2 4 6 10 18 13 11 4 18 9 16 11 -3 3 28
35 68 72 40 37 74 72 75 77 1 6 37 43 80 83 43 39 77 72 76 72 -2 0 17 21 43
48 25 26 48 47 51 47 3 0 46 42 96 92 50 51 89 93 87 93 -4 0 19 22 80 78 26
23 45 42 43 42 -2 0 42 44 99 98 56 53 103 101 104 105 1 10 104 106 114 107
4 0 7 6 7 14 0 7 16 21 35 30 33 16 46 16 130 0 189 -35 391 -34 545 2 14 3
35 7 46 9 12 2 31 8 43 14 11 7 21 10 21 7 0 -15 230 93 308 145 24 16 45 29
46 29 9 0 77 61 151 135 82 83 137 145 128 145 -2 0 8 17 25 38 62 79 160 298
177 392 3 18 7 36 9 39 2 3 7 31 11 61 3 30 8 62 11 71 7 24 6 229 0 269 -4
19 -9 51 -11 70 -7 57 -35 167 -52 210 -3 8 -5 20 -4 25 3 13 1 10 -469 -455
-213 -212 -404 -400 -424 -419 l-35 -34 -27 24 c-15 13 -47 43 -71 66 -24 24
-50 46 -58 50 -12 8 -102 87 -185 163 -21 19 -54 48 -73 64 -20 16 -34 34 -30
40 3 6 3 8 -1 4 -9 -8 -18 -1 -83 60 -25 23 -47 42 -49 42 -2 0 -12 8 -23 18
-10 9 -27 24 -37 32 -11 8 -27 25 -37 37 -19 21 -18 22 324 362 189 188 344
341 344 341 1 0 66 65 146 145 95 94 142 148 135 153 -10 8 -73 35 -86 38 -3
0 -18 6 -35 13 -16 7 -43 15 -60 18 -16 3 -38 9 -47 14 -10 5 -18 8 -18 5 0
-3 -14 -1 -30 4 -71 20 -251 30 -365 19z"/>
<path d="M5310 11597 c0 -4 -11 -5 -25 -1 -15 4 -25 2 -25 -4 0 -6 -9 -13 -20
-17 -23 -7 -90 -70 -106 -100 -10 -18 -27 -75 -28 -97 -1 -3 -5 -10 -9 -14 -4
-5 -7 -199 -6 -432 l1 -424 -27 -14 c-16 -8 -37 -12 -47 -8 -10 3 -25 0 -33
-6 -8 -7 -26 -9 -40 -6 -14 4 -25 2 -25 -4 0 -5 -16 -10 -35 -10 -19 0 -35 -5
-35 -11 0 -6 -9 -8 -21 -4 -12 4 -24 3 -28 -3 -3 -5 -22 -12 -42 -15 -20 -2
-42 -8 -49 -12 -6 -4 -27 -7 -46 -7 -19 0 -34 -4 -34 -10 0 -5 -9 -6 -20 -3
-13 4 -22 1 -26 -8 -3 -9 -13 -13 -25 -10 -10 3 -19 1 -19 -5 0 -6 -9 -8 -20
-5 -11 3 -20 0 -20 -6 0 -6 -9 -11 -19 -11 -11 0 -22 -4 -25 -9 -3 -5 -15 -7
-26 -4 -11 3 -28 2 -37 -2 -10 -5 -23 -7 -30 -6 -6 1 -14 -3 -18 -9 -3 -5 -15
-10 -26 -10 -10 0 -19 -4 -19 -9 0 -5 -9 -7 -20 -4 -12 3 -20 0 -20 -7 0 -7
-8 -9 -21 -5 -16 5 -19 4 -14 -5 5 -9 2 -10 -14 -5 -13 4 -21 2 -21 -5 0 -6
-11 -10 -26 -8 -22 2 -38 24 -101 133 -42 72 -85 148 -97 170 -11 22 -24 42
-28 45 -3 3 -18 28 -32 55 -15 28 -37 68 -51 90 -14 22 -28 47 -32 55 -4 8
-24 43 -45 78 -21 34 -38 67 -38 72 0 6 -4 10 -10 10 -5 0 -10 6 -10 13 0 7
-18 28 -41 47 -23 19 -47 41 -54 48 -8 6 -18 12 -24 12 -6 0 -11 5 -11 10 0 6
-33 9 -87 6 -90 -4 -111 -11 -208 -71 -22 -14 -47 -28 -55 -32 -8 -4 -17 -10
-20 -13 -3 -4 -24 -17 -48 -29 -24 -12 -68 -38 -97 -57 -30 -19 -56 -34 -57
-33 -2 2 -22 -10 -45 -24 -24 -15 -47 -27 -52 -27 -5 0 -14 -7 -21 -15 -7 -8
-23 -15 -36 -15 -13 0 -24 -4 -24 -8 0 -8 -61 -47 -70 -45 -3 1 -13 -6 -24
-15 -10 -9 -20 -16 -22 -14 -12 8 -174 -85 -202 -116 -61 -67 -76 -107 -78
-207 -1 -75 2 -96 21 -130 29 -55 49 -89 55 -95 10 -10 30 -46 58 -100 15 -30
32 -61 39 -68 6 -6 15 -21 18 -32 3 -11 11 -20 17 -20 6 0 8 -3 5 -6 -4 -4 2
-19 12 -33 10 -14 33 -54 52 -88 18 -35 37 -63 41 -63 5 0 8 -9 8 -20 0 -11 5
-20 10 -20 6 0 10 -7 10 -15 0 -8 5 -15 10 -15 6 0 10 -9 10 -20 0 -11 4 -20
9 -20 5 0 15 -15 22 -32 7 -18 19 -39 26 -46 7 -7 13 -17 13 -22 0 -13 -183
-188 -219 -210 -10 -6 4 -24 54 -71 38 -35 94 -89 126 -119 31 -30 117 -111
190 -180 73 -69 159 -150 190 -180 32 -30 113 -107 180 -170 67 -63 145 -137
174 -165 29 -27 112 -106 185 -175 73 -69 159 -150 191 -180 31 -30 115 -109
184 -175 70 -66 156 -147 191 -180 34 -33 120 -114 190 -180 70 -66 136 -129
146 -140 11 -12 22 -16 26 -10 4 6 17 16 30 23 12 6 32 18 45 25 12 6 24 15
27 19 9 12 206 107 276 134 216 82 394 119 617 129 100 4 130 15 120 41 -3 8
-1 14 5 14 10 0 11 17 1 35 -5 10 -5 1650 1 1670 1 6 2 12 0 15 -7 19 -3 101
5 104 5 3 4 5 -2 5 -9 1 -10 8 -3 26 6 17 6 25 -1 25 -6 0 -8 4 -5 9 3 4 6 94
8 200 1 105 4 191 7 191 12 0 12 288 0 296 -7 4 -8 9 -1 13 6 4 12 232 17 614
l7 607 -28 1 c-178 5 -504 2 -504 -4z"/>
<path d="M6410 11566 c0 -2 7 -7 16 -10 8 -3 12 -2 9 4 -6 10 -25 14 -25 6z"/>
<path d="M6535 11360 c-3 -5 -1 -10 4 -10 6 0 11 5 11 10 0 6 -2 10 -4 10 -3
0 -8 -4 -11 -10z"/>
<path d="M7876 10853 c-6 -14 -5 -15 5 -6 7 7 10 15 7 18 -3 3 -9 -2 -12 -12z"/>
<path d="M7805 10740 c-3 -5 -2 -10 4 -10 5 0 13 5 16 10 3 6 2 10 -4 10 -5 0
-13 -4 -16 -10z"/>
<path d="M6542 10610 c0 -14 2 -19 5 -12 2 6 2 18 0 25 -3 6 -5 1 -5 -13z"/>
<path d="M1250 9281 c0 -5 -12 -11 -27 -15 -46 -10 -111 -100 -248 -343 -13
-22 -34 -58 -48 -80 -13 -21 -38 -66 -57 -100 -18 -35 -37 -63 -41 -63 -5 0
-9 -9 -9 -19 0 -11 -4 -23 -10 -26 -5 -3 -17 -23 -27 -43 -9 -20 -25 -44 -35
-53 -10 -9 -18 -23 -18 -31 0 -9 -8 -26 -17 -39 -18 -24 -75 -136 -89 -174
-16 -42 -11 -129 9 -173 24 -53 100 -132 126 -132 5 0 15 -9 22 -21 12 -17 28
-24 61 -28 4 -1 13 -7 20 -13 7 -7 26 -20 43 -28 16 -8 38 -22 48 -30 10 -8
21 -15 25 -15 18 -2 94 -47 99 -60 3 -8 9 -12 14 -9 5 3 9 0 9 -6 0 -7 6 -10
13 -7 6 2 26 -6 42 -18 17 -12 40 -25 51 -29 12 -3 29 -15 39 -26 10 -11 26
-20 36 -20 10 0 25 -8 35 -17 9 -10 24 -18 32 -19 8 -2 27 -11 41 -22 14 -10
41 -27 59 -36 29 -15 32 -19 20 -33 -7 -9 -13 -21 -13 -27 -1 -6 -4 -18 -7
-26 -21 -50 -91 -271 -113 -355 -14 -55 -29 -107 -32 -115 -3 -8 -5 -18 -5
-22 1 -5 -3 -8 -8 -8 -6 0 -8 -11 -4 -25 3 -14 2 -25 -4 -25 -6 0 -8 -10 -5
-21 4 -15 0 -27 -13 -37 -13 -10 -15 -16 -6 -19 15 -6 16 -33 1 -33 -5 0 -9
-8 -8 -17 1 -10 -1 -26 -6 -35 -4 -10 -5 -25 -2 -33 4 -8 2 -17 -4 -21 -6 -3
-9 -18 -7 -33 1 -14 -4 -41 -11 -58 l-13 -32 -416 -4 c-449 -5 -555 -10 -560
-26 -2 -6 -10 -11 -18 -11 -8 0 -14 -5 -14 -11 0 -6 -6 -9 -14 -6 -18 7 -40
-17 -60 -67 -13 -32 -16 -84 -16 -310 l0 -272 118 2 c64 1 423 5 797 8 374 4
959 9 1300 12 341 3 763 6 937 7 175 1 318 5 318 9 0 4 11 3 24 -2 13 -5 26
-6 29 -4 3 3 30 5 61 4 31 0 62 -1 69 -1 6 0 37 0 68 1 47 2 55 5 54 21 -1 18
8 108 20 204 4 28 13 77 22 110 8 33 17 70 19 82 20 107 139 377 224 506 27
43 50 82 50 86 0 5 3 11 8 13 4 2 32 35 63 73 31 39 75 90 99 114 l43 44 -85
81 c-47 44 -136 128 -197 186 -62 58 -143 134 -180 170 -37 36 -118 112 -180
170 -61 58 -142 134 -179 170 -38 36 -137 130 -222 210 -85 80 -182 172 -217
205 -34 33 -91 86 -125 119 -35 32 -130 122 -212 200 -82 77 -186 175 -230
217 -45 42 -103 97 -129 122 l-48 45 -69 -71 c-39 -39 -70 -74 -70 -77 0 -3
-22 -28 -48 -57 l-48 -51 -24 19 c-14 10 -31 19 -37 19 -7 0 -13 4 -13 8 0 4
-12 13 -27 19 -45 20 -161 86 -183 105 -11 10 -24 17 -28 16 -7 -2 -53 21 -62
31 -3 3 -22 15 -42 26 -21 11 -38 23 -38 27 0 5 -9 8 -19 8 -11 0 -34 12 -52
27 -18 15 -37 28 -43 29 -6 0 -16 2 -23 2 -6 1 -15 11 -18 23 -5 14 -13 19
-24 16 -10 -2 -29 4 -42 14 -13 10 -30 19 -36 19 -7 0 -13 5 -13 10 0 6 -9 10
-19 10 -11 0 -26 7 -35 15 -16 17 -166 22 -166 6z"/>
<path d="M10381 6794 c0 -11 3 -14 6 -6 3 7 2 16 -1 19 -3 4 -6 -2 -5 -13z"/>
<path d="M11546 6377 c3 -10 9 -15 12 -12 3 3 0 11 -7 18 -10 9 -11 8 -5 -6z"/>
<path d="M7713 5898 c-2 -5 -19 -8 -36 -8 -46 0 -53 -9 -56 -70 -2 -30 -4 -88
-6 -127 -3 -64 -46 -293 -62 -333 -4 -8 -7 -17 -8 -20 -24 -95 -156 -400 -176
-408 -5 -2 -9 -10 -9 -18 0 -8 -4 -14 -10 -14 -5 0 -10 -5 -10 -11 0 -45 -261
-353 -380 -447 -23 -18 -23 -20 -7 -36 9 -10 17 -22 17 -27 0 -5 5 -15 10 -22
22 -26 110 -168 110 -177 0 -6 3 -10 8 -10 4 0 12 -9 17 -20 6 -11 46 -76 90
-145 44 -70 98 -155 120 -190 109 -175 210 -330 217 -333 4 -2 8 -8 8 -13 0
-5 17 -35 37 -66 21 -32 42 -65 48 -75 46 -76 195 -311 245 -388 5 -8 51 -80
101 -160 50 -80 104 -163 119 -185 15 -22 30 -47 34 -55 3 -8 60 -98 125 -200
152 -236 393 -615 406 -639 6 -10 22 -36 36 -57 37 -55 80 -124 209 -329 62
-99 117 -184 121 -189 8 -9 60 17 93 47 11 9 23 17 28 17 4 0 8 7 8 15 0 7 6
18 14 22 29 17 50 77 51 143 0 36 -4 74 -9 85 -5 11 -10 22 -10 25 -4 15 -52
106 -60 112 -5 3 -10 13 -12 20 -1 7 -13 30 -27 51 -14 21 -35 57 -47 80 -12
23 -29 54 -38 69 -36 56 -72 121 -72 129 0 5 -4 9 -9 9 -5 0 -12 11 -15 25 -4
14 -11 25 -16 25 -5 0 -7 6 -4 13 2 7 -4 22 -16 32 -11 10 -20 22 -20 28 0 5
-8 21 -19 35 -10 15 -30 50 -45 78 l-26 50 186 190 c102 104 259 264 350 356
90 93 168 168 173 168 5 0 16 -6 23 -12 8 -7 38 -26 68 -42 30 -16 70 -40 88
-53 18 -14 36 -22 39 -19 4 3 19 -8 35 -26 15 -17 31 -29 34 -25 8 7 114 -49
130 -69 6 -8 14 -11 17 -8 3 4 18 -3 34 -13 15 -11 60 -37 98 -58 39 -21 80
-47 92 -58 12 -10 26 -16 32 -12 6 3 11 1 11 -4 0 -6 7 -11 15 -11 8 0 23 -8
33 -18 37 -37 252 -29 252 10 0 5 13 20 29 34 30 25 121 163 121 183 0 6 4 11
9 11 5 0 11 8 15 18 3 9 19 40 36 67 16 28 33 57 37 65 3 8 9 17 12 20 3 3 14
21 25 40 35 66 69 125 123 214 29 49 53 91 53 94 0 2 20 38 45 79 25 40 45 80
45 88 0 8 4 15 8 15 5 0 9 7 9 15 0 8 6 33 13 54 12 36 11 46 -10 103 -25 70
-71 124 -140 166 -25 15 -53 33 -63 42 -10 8 -21 15 -25 15 -17 1 -79 37 -105
61 -15 14 -31 23 -35 20 -4 -2 -26 9 -50 25 -23 16 -49 29 -57 29 -7 0 -15 4
-17 9 -1 5 -25 20 -53 35 -66 35 -87 48 -100 64 -6 7 -17 14 -25 15 -8 1 -37
15 -64 30 -27 15 -52 27 -57 27 -5 0 -9 4 -9 8 0 5 -18 16 -40 26 -30 13 -39
22 -36 34 5 14 51 182 60 217 1 6 8 37 15 70 7 33 16 65 20 70 6 8 31 103 36
135 0 3 3 10 7 16 4 6 10 30 14 52 4 25 11 39 17 35 6 -4 8 2 5 15 -3 12 10
76 29 144 20 68 36 128 36 135 0 7 6 14 14 17 7 3 115 5 240 6 562 0 669 2
677 10 5 5 15 6 22 3 8 -3 14 -1 14 5 0 5 10 12 23 16 44 11 122 103 130 153
1 10 6 23 9 29 4 6 7 129 7 273 l0 262 -642 0 c-353 0 -1217 1 -1920 2 -704 1
-1281 -1 -1284 -5z"/>
<path d="M3826 5623 c-2 -2 -286 -6 -632 -8 -346 -3 -827 -7 -1069 -10 -242
-2 -757 -8 -1145 -11 -388 -4 -741 -7 -785 -8 l-80 -1 -3 -126 c-2 -103 0
-128 13 -139 8 -7 15 -18 15 -25 0 -22 62 -78 113 -102 26 -12 47 -19 47 -16
0 3 6 1 13 -5 8 -7 160 -11 437 -11 234 -1 432 -2 441 -4 16 -3 57 -37 44 -37
-3 0 -1 -9 5 -20 6 -11 11 -36 12 -55 1 -19 4 -35 8 -35 4 0 8 -12 9 -27 3
-39 7 -66 15 -83 3 -8 7 -31 8 -50 2 -19 6 -37 10 -40 4 -3 10 -21 13 -40 3
-19 8 -43 11 -52 3 -9 7 -27 10 -40 9 -39 12 -53 14 -53 1 0 4 -9 6 -20 3 -11
6 -24 7 -30 1 -5 6 -15 10 -22 4 -6 4 -18 1 -27 -4 -10 -1 -16 7 -16 7 0 10
-3 7 -6 -4 -3 0 -21 8 -40 8 -19 14 -36 14 -39 0 -3 3 -10 5 -17 20 -58 54
-167 57 -183 4 -21 -19 -37 -167 -119 -38 -22 -72 -42 -75 -46 -7 -9 -43 -24
-52 -22 -5 1 -8 -2 -8 -8 0 -10 -69 -44 -82 -42 -5 1 -8 -5 -8 -14 0 -8 -4
-13 -9 -9 -5 3 -16 -1 -24 -9 -8 -8 -17 -13 -19 -10 -3 2 -11 -2 -18 -11 -7
-8 -16 -15 -21 -15 -5 0 -32 -15 -61 -34 -29 -18 -63 -36 -75 -40 -13 -4 -23
-12 -23 -17 0 -5 -7 -9 -15 -9 -8 0 -15 -4 -15 -10 0 -5 -7 -10 -14 -10 -8 0
-27 -11 -42 -25 -14 -13 -30 -22 -35 -19 -5 3 -9 2 -9 -3 0 -4 -18 -28 -40
-53 -22 -25 -40 -53 -40 -62 0 -9 -5 -20 -10 -23 -6 -4 -8 -11 -5 -16 4 -5 1
-9 -5 -9 -7 0 -8 -6 0 -19 5 -11 6 -22 2 -25 -5 -3 -9 -25 -11 -49 -2 -47 5
-64 74 -172 22 -33 38 -62 38 -65 -1 -3 5 -9 13 -13 8 -4 14 -15 14 -22 0 -8
4 -15 9 -15 5 0 14 -13 21 -30 7 -16 16 -30 21 -30 5 0 9 -6 9 -13 0 -7 9 -23
20 -35 11 -12 20 -25 20 -30 0 -5 7 -15 15 -22 8 -7 12 -16 9 -21 -3 -5 -1 -9
4 -9 5 0 22 -23 38 -52 16 -28 44 -77 61 -107 18 -31 39 -67 45 -81 7 -14 15
-27 19 -30 3 -3 22 -35 43 -72 33 -60 161 -197 173 -185 2 3 20 1 39 -3 18 -4
34 -5 34 -1 0 4 14 8 32 9 17 2 36 6 42 10 6 5 27 9 46 11 19 2 37 6 40 10 3
4 23 15 45 25 22 11 51 27 64 37 13 11 31 19 41 19 9 0 25 8 34 19 9 10 47 34
84 52 37 18 69 36 72 40 8 9 87 55 164 94 38 19 77 41 85 49 9 8 40 26 69 41
l54 28 36 -40 c93 -102 147 -167 150 -180 2 -7 8 -13 13 -13 5 0 9 -7 9 -15 0
-8 4 -15 9 -15 13 0 171 -160 171 -172 0 -2 40 -46 90 -97 49 -52 87 -98 83
-104 -3 -5 -2 -8 3 -4 5 3 23 -11 39 -30 17 -20 38 -43 48 -52 22 -20 22 -42
-2 -72 -10 -13 -20 -28 -21 -34 -6 -24 -24 -55 -32 -55 -4 0 -8 -9 -8 -20 0
-10 -6 -23 -14 -27 -8 -4 -24 -28 -35 -53 -19 -44 -51 -100 -61 -110 -3 -3
-14 -23 -25 -45 -11 -22 -27 -45 -35 -52 -8 -7 -11 -13 -7 -13 5 0 -1 -13 -11
-28 -11 -15 -32 -49 -46 -75 -14 -26 -37 -68 -51 -94 -14 -25 -25 -54 -25 -64
0 -10 -3 -20 -8 -23 -18 -11 -3 -180 17 -196 4 -3 14 -17 24 -32 10 -16 24
-28 32 -28 8 0 19 -9 25 -19 5 -11 30 -27 55 -36 25 -10 45 -21 45 -24 0 -4
16 -13 35 -21 19 -8 35 -17 35 -21 0 -4 8 -9 18 -13 9 -3 40 -19 67 -36 28
-16 73 -41 102 -56 29 -14 57 -32 64 -40 6 -8 17 -14 24 -14 7 0 18 -7 25 -15
7 -9 19 -14 27 -11 7 3 13 1 13 -5 0 -5 11 -14 25 -19 14 -5 25 -14 25 -20 0
-5 9 -10 19 -10 11 0 27 -7 36 -16 9 -10 44 -32 78 -50 34 -18 85 -45 114 -60
58 -31 75 -26 88 24 3 14 14 44 24 67 10 22 29 69 41 105 13 36 30 76 37 90 7
14 13 30 13 36 0 6 6 24 14 40 8 16 55 135 105 264 50 129 98 248 106 263 8
16 15 37 15 48 0 10 4 19 10 19 5 0 9 3 8 7 -3 8 13 52 33 98 5 11 47 119 94
240 47 121 90 229 95 240 5 11 23 58 40 105 18 47 38 99 46 115 7 17 33 82 58
145 59 151 230 589 241 615 5 11 9 22 10 25 1 3 7 19 14 35 6 17 39 100 72
185 33 85 64 164 69 175 15 35 92 230 95 240 1 6 7 23 13 38 7 16 21 49 31 75
11 26 34 85 52 132 18 47 36 90 41 96 5 8 -15 26 -59 55 -190 120 -378 293
-502 459 -39 52 -75 100 -81 107 -5 7 -10 15 -10 19 0 3 -12 25 -28 48 -36 54
-124 244 -152 326 -12 36 -25 74 -30 85 -9 24 -47 192 -56 252 -6 38 -9 41
-40 45 -19 2 -36 3 -38 1z"/>
<path d="M6615 4210 c-156 -82 -346 -146 -530 -179 -33 -6 -71 -14 -85 -17
-14 -3 -104 -7 -200 -9 -160 -3 -205 -1 -355 20 -60 8 -223 48 -282 69 l-43
15 -15 -29 c-9 -17 -16 -33 -17 -37 0 -5 -4 -17 -9 -28 -5 -11 -29 -74 -54
-140 -26 -66 -51 -129 -56 -140 -4 -11 -18 -45 -29 -75 -11 -30 -25 -64 -29
-75 -15 -33 -163 -409 -166 -420 -1 -5 -7 -21 -12 -35 -6 -14 -20 -47 -30 -75
-11 -27 -24 -59 -28 -70 -5 -11 -9 -22 -10 -25 -1 -3 -8 -21 -17 -40 -8 -19
-21 -53 -28 -75 -7 -22 -16 -44 -20 -50 -5 -8 -42 -99 -46 -115 -1 -7 -15 -42
-24 -65 -37 -86 -53 -129 -53 -141 0 -8 -4 -14 -9 -14 -4 0 -8 -4 -8 -10 0
-11 -146 -388 -160 -412 -6 -10 -10 -23 -10 -29 0 -6 -7 -25 -15 -42 -8 -18
-48 -117 -89 -220 -63 -161 -72 -189 -57 -194 9 -2 25 -9 36 -13 11 -5 39 -14
63 -21 23 -7 42 -16 42 -21 0 -4 10 -8 23 -8 12 0 34 -6 48 -14 14 -7 47 -16
72 -20 26 -4 49 -10 51 -14 2 -4 19 -9 38 -10 18 -2 34 -7 36 -12 2 -5 26 -12
53 -16 27 -4 49 -11 49 -16 0 -5 15 -8 33 -7 18 2 37 0 42 -3 6 -3 30 -9 55
-13 25 -4 50 -11 55 -15 6 -4 30 -11 55 -15 25 -4 50 -11 56 -16 7 -6 16 -9
20 -7 5 1 30 -1 56 -6 82 -13 80 3 79 -473 -1 -293 -4 -420 -12 -429 -8 -10
-8 -14 0 -14 6 0 11 -14 11 -31 0 -16 4 -28 9 -24 6 3 8 -6 5 -20 -2 -14 0
-25 6 -25 5 0 10 -6 10 -14 0 -7 11 -21 25 -30 14 -9 23 -21 20 -26 -4 -6 1
-10 9 -10 9 0 16 -4 16 -9 0 -5 16 -18 36 -30 35 -21 44 -21 595 -21 366 0
559 3 559 10 0 6 10 10 23 10 12 0 30 9 40 20 9 11 24 20 32 20 8 0 15 7 15
15 0 7 6 18 13 22 22 13 44 84 46 147 2 32 8 68 14 79 9 15 9 21 0 24 -10 4
-13 86 -13 364 0 269 3 365 13 380 10 17 10 23 0 26 -31 11 -10 31 40 36 64 8
79 11 92 19 6 3 36 9 68 12 31 4 57 11 57 15 0 5 24 11 52 14 29 4 54 10 55
14 2 5 23 7 48 6 25 -1 45 2 45 7 0 4 19 11 43 15 23 4 44 11 47 15 3 5 19 11
35 14 58 11 130 30 135 36 3 3 23 10 45 17 63 18 139 47 146 56 9 13 47 -41
81 -115 7 -16 16 -28 20 -28 4 0 5 -7 2 -15 -4 -8 -1 -15 5 -15 6 0 11 -7 11
-15 0 -8 4 -15 9 -15 5 0 12 -8 15 -18 4 -10 14 -27 24 -38 18 -20 62 -105 62
-120 0 -5 9 -16 19 -23 11 -8 17 -20 14 -28 -3 -7 2 -13 11 -13 14 0 21 -18
17 -42 0 -5 3 -8 8 -8 5 0 12 -13 16 -29 3 -16 13 -32 21 -35 8 -3 14 -12 14
-20 0 -8 6 -21 14 -29 8 -8 22 -29 30 -48 24 -49 50 -94 59 -97 4 -2 7 -8 7
-13 0 -5 20 -30 45 -54 31 -32 59 -49 92 -57 26 -7 51 -16 54 -21 3 -4 18 -3
33 3 17 6 25 6 21 0 -3 -6 1 -10 9 -10 9 0 16 5 16 10 0 6 11 10 25 10 42 0
146 47 214 98 24 17 50 32 57 32 8 0 14 4 14 10 0 5 7 7 15 4 8 -4 15 -2 15 3
0 5 17 17 38 27 28 14 151 90 181 112 5 4 -105 181 -120 194 -3 3 -8 12 -11
20 -5 12 -281 451 -328 520 -45 68 -90 142 -90 150 0 6 -3 10 -8 10 -4 0 -18
20 -32 45 -14 25 -28 45 -32 45 -5 0 -8 4 -8 9 0 9 -97 169 -110 181 -3 3 -11
15 -17 28 -7 12 -19 32 -25 45 -7 12 -16 24 -19 27 -4 3 -21 30 -40 60 -18 30
-37 57 -41 58 -4 2 -8 9 -8 15 0 6 -20 40 -44 76 -97 148 -276 433 -276 442 0
5 -4 9 -8 9 -5 0 -14 10 -20 23 -15 27 -29 50 -157 253 -55 88 -103 161 -107
162 -5 2 -8 8 -8 13 0 7 -78 133 -107 175 -16 21 -33 50 -40 64 -4 8 -9 17
-13 20 -3 3 -25 37 -49 75 -24 39 -100 159 -170 268 -69 109 -135 213 -146
231 -11 19 -27 43 -35 55 l-15 22 -60 -31z"/>
</g>
</svg>
